screens;
 
http://baypic.net/img-51977c0980728.html
 
http://baypic.net/img-51977c1901163.html
 
http://baypic.net/img-51977c257546e.html
 
http://baypic.net/img-51977c3594dac.html
 
http://baypic.net/img-51977c42bf748.html

Category All Sex Movies, Evil Angel's Raw Series

Director Manuel Ferrara

Starring Manuel Ferrara, Lily Labeau, Nikki Sexx, Kortney Kane, Nikki Delano

Format : MPEG-4
Format profile : Base Media
Codec ID : isom
File size : 2.16 GiB
Duration : 44mn 37s
Overall bit rate mode : Variable
Overall bit rate : 6 931 Kbps
Writing application : Lavf52.93.0

Video
ID : 1
Format : AVC
Format/Info : Advanced Video Codec
Format profile : High@L4.0
Format settings, CABAC : Yes
Format settings, ReFrames : 4 frames
Codec ID : avc1
Codec ID/Info : Advanced Video Coding
Duration : 44mn 37s
Bit rate : 6 800 Kbps
Width : 1 920 pixels
Height : 1 080 pixels
Display aspect ratio : 16:9
Frame rate mode : Constant
Frame rate : 29.970 fps
Color space : YUV
Chroma subsampling : 4:2:0
Bit depth : 8 bits
Scan type : Progressive
Bits/(Pixel*Frame) : 0.109
Stream size : 2.11 GiB (98%)

Audio
ID : 2
Format : AAC
Format/Info : Advanced Audio Codec
Format profile : LC
Codec ID : 40
Duration : 44mn 37s
Bit rate mode : Variable
Bit rate : 152 Kbps
Channel(s) : 2 channels
Channel positions : Front: L R
Sampling rate : 44.1 KHz
Compression mode : Lossy
Delay relative to video : 67ms
Stream size : 48.5 MiB (2%)
